<svg id="visual" viewBox="0 0 900 600" width="900" height="600" xmlns="http://www.w3.org/2000/svg" xmlns:xlink="http://www.w3.org/1999/xlink" version="1.1"><rect x="0" y="0" width="900" height="600" fill="#ababab"></rect><path d="M0 433L21.5 427.2C43 421.3 86 409.7 128.8 408.7C171.7 407.7 214.3 417.3 257.2 415.2C300 413 343 399 385.8 395.7C428.7 392.3 471.3 399.7 514.2 396.7C557 393.7 600 380.3 642.8 374.7C685.7 369 728.3 371 771.2 384C814 397 857 421 878.5 433L900 445L900 601L878.5 601C857 601 814 601 771.2 601C728.3 601 685.7 601 642.8 601C600 601 557 601 514.2 601C471.3 601 428.7 601 385.8 601C343 601 300 601 257.2 601C214.3 601 171.7 601 128.8 601C86 601 43 601 21.5 601L0 601Z" fill="#e7900a"></path><path d="M0 394L21.5 399.3C43 404.7 86 415.3 128.8 425.8C171.7 436.3 214.3 446.7 257.2 455.5C300 464.3 343 471.7 385.8 471.2C428.7 470.7 471.3 462.3 514.2 449C557 435.7 600 417.3 642.8 411.2C685.7 405 728.3 411 771.2 419.7C814 428.3 857 439.7 878.5 445.3L900 451L900 601L878.5 601C857 601 814 601 771.2 601C728.3 601 685.7 601 642.8 601C600 601 557 601 514.2 601C471.3 601 428.7 601 385.8 601C343 601 300 601 257.2 601C214.3 601 171.7 601 128.8 601C86 601 43 601 21.5 601L0 601Z" fill="#cd6e07"></path><path d="M0 445L21.5 450.3C43 455.7 86 466.3 128.8 476.5C171.7 486.7 214.3 496.3 257.2 500.2C300 504 343 502 385.8 492.3C428.7 482.7 471.3 465.3 514.2 455.8C557 446.3 600 444.7 642.8 451.5C685.7 458.3 728.3 473.7 771.2 483.3C814 493 857 497 878.5 499L900 501L900 601L878.5 601C857 601 814 601 771.2 601C728.3 601 685.7 601 642.8 601C600 601 557 601 514.2 601C471.3 601 428.7 601 385.8 601C343 601 300 601 257.2 601C214.3 601 171.7 601 128.8 601C86 601 43 601 21.5 601L0 601Z" fill="#b14d07"></path><path d="M0 506L21.5 510.7C43 515.3 86 524.7 128.8 528.3C171.7 532 214.3 530 257.2 527C300 524 343 520 385.8 519.8C428.7 519.7 471.3 523.3 514.2 525.8C557 528.3 600 529.7 642.8 522C685.7 514.3 728.3 497.7 771.2 494.8C814 492 857 503 878.5 508.5L900 514L900 601L878.5 601C857 601 814 601 771.2 601C728.3 601 685.7 601 642.8 601C600 601 557 601 514.2 601C471.3 601 428.7 601 385.8 601C343 601 300 601 257.2 601C214.3 601 171.7 601 128.8 601C86 601 43 601 21.5 601L0 601Z" fill="#932d06"></path><path d="M0 552L21.5 550.2C43 548.3 86 544.7 128.8 540.2C171.7 535.7 214.3 530.3 257.2 534.3C300 538.3 343 551.7 385.8 554.8C428.7 558 471.3 551 514.2 546.3C557 541.7 600 539.3 642.8 542C685.7 544.7 728.3 552.3 771.2 557.5C814 562.7 857 565.3 878.5 566.7L900 568L900 601L878.5 601C857 601 814 601 771.2 601C728.3 601 685.7 601 642.8 601C600 601 557 601 514.2 601C471.3 601 428.7 601 385.8 601C343 601 300 601 257.2 601C214.3 601 171.7 601 128.8 601C86 601 43 601 21.5 601L0 601Z" fill="#730700"></path></svg>